<?xml version="1.0" encoding="UTF-8" standalone="no"?>
<svg width="88px" height="88px" viewBox="0 0 88 88" version="1.1" xmlns="http://www.w3.org/2000/svg" xmlns:xlink="http://www.w3.org/1999/xlink" xmlns:sketch="http://www.bohemiancoding.com/sketch/ns">
    <!-- Generator: Sketch 3.0.2 (7799) - http://www.bohemiancoding.com/sketch -->
    <title>Dribbble 2</title>
    <description>Created with Sketch.</description>
    <defs></defs>
    <g id="Page-1" stroke="none" stroke-width="1" fill="none" fill-rule="evenodd" sketch:type="MSPage">
        <g id="Social-logos" sketch:type="MSArtboardGroup" transform="translate(-734.000000, -240.000000)" fill="#FFFFFF">
            <path d="M799.179538,315 C798.806981,312.768516 796.833629,301.918886 792,288.594905 C803.91462,286.685639 814.23806,289.960727 815,290.210807 C813.363152,300.50978 807.471941,309.392434 799.179538,315 L799.179538,315 Z M778.18346,322 C768.996958,322 760.569202,318.715593 754,313.253995 C754.49924,313.661133 754.855133,313.9218 754.855133,313.9218 C754.855133,313.9218 762.123764,297.966486 784.643916,290.081924 C784.730418,290.052133 784.814449,290.024825 784.893536,290 C790.236882,303.954383 792.446388,315.637238 793,318.976261 C788.452471,320.920093 783.437833,322 778.18346,322 L778.18346,322 Z M740,283.61302 C740,283.207738 740.017264,282.812341 740.029595,282.416943 C740.697945,282.426828 759.421609,282.854352 778.92707,277 C780.009748,279.130203 781.048033,281.297475 782,283.459804 C781.489489,283.598193 781.003641,283.748938 780.507927,283.914511 C760.065297,290.539887 749.694774,308.982701 749.694774,308.982701 C749.694774,308.982701 749.707105,308.995058 749.707105,309 C743.674692,302.270832 740,293.371921 740,283.61302 L740,283.61302 Z M761.922008,250 C762.427967,250.658819 769.437346,259.996119 776,271.450359 C757.797828,276.200151 741.992173,276.013647 741,275.99427 C743.465623,264.462522 751.346238,254.902386 761.922008,250 L761.922008,250 Z M769.1,248 C769.1,248.006 769.096,248.008 769.096,248.008 C769.096,248.008 769.058,248.016 769,248.028 C769.034,248.018 769.066,248.014 769.1,248 L769.1,248 Z M803,255.382963 C802.903683,255.529725 797.502506,263.679889 783.178398,269 C776.695504,257.188131 769.568025,247.805169 769,247.061576 C771.867291,246.376688 774.865475,246 777.942689,246 C787.542311,246 796.312123,249.551632 803,255.382963 L803,255.382963 Z M815,283 C814.460958,282.882726 801.954693,280.202185 789.248693,281.793757 C788.99361,281.164308 788.731309,280.530073 788.456975,279.895838 C787.684508,278.096046 786.856692,276.313007 786,274.556296 C800.590241,268.625598 806.514895,260.098127 806.582275,260 C811.780184,266.263371 814.906149,274.269095 815,283 L815,283 Z M821.097298,275.141333 C820.524853,272.318 819.653953,269.531333 818.53108,266.874222 C817.430224,264.261111 816.072501,261.748222 814.484822,259.399111 C812.909374,257.069556 811.096631,254.881778 809.112643,252.892 C807.11887,250.897333 804.936729,249.090889 802.600467,247.521556 C800.25442,245.925333 797.732236,244.566222 795.134216,243.461333 C792.475036,242.344222 789.683754,241.469111 786.858223,240.899556 C783.964194,240.303111 780.979651,240 778,240 C775.020349,240 772.038252,240.303111 769.136884,240.899556 C766.308907,241.469111 763.524964,242.344222 760.865784,243.461333 C758.267764,244.566222 755.74558,245.925333 753.392194,247.521556 C751.055932,249.090889 748.878683,250.897333 746.882464,252.892 C744.893584,254.881778 743.090626,257.069556 741.515178,259.399111 C739.925053,261.748222 738.557545,264.261111 737.456689,266.874222 C736.336262,269.531333 735.467808,272.318 734.888024,275.141333 C734.298454,278.033111 734,281.015333 734,283.997556 C734,286.984667 734.298454,289.966889 734.888024,292.863556 C735.467808,295.689333 736.336262,298.473556 737.456689,301.128222 C738.557545,303.738889 739.925053,306.259111 741.515178,308.605778 C743.090626,310.937778 744.893584,313.120667 746.882464,315.115333 C748.878683,317.102667 751.055932,318.909111 753.392194,320.480889 C755.74558,322.069778 758.267764,323.436222 760.865784,324.538667 C763.524964,325.663111 766.308907,326.521111 769.136884,327.102889 C772.038252,327.699333 775.020349,328 778,328 C780.979651,328 783.964194,327.699333 786.858223,327.102889 C789.683754,326.521111 792.475036,325.663111 795.134216,324.538667 C797.732236,323.436222 800.25442,322.069778 802.600467,320.480889 C804.936729,318.909111 807.11887,317.102667 809.112643,315.115333 C811.096631,313.120667 812.909374,310.937778 814.484822,308.605778 C816.072501,306.259111 817.430224,303.738889 818.53108,301.128222 C819.653953,298.473556 820.524853,295.689333 821.097298,292.863556 C821.701546,289.966889 822,286.984667 822,283.997556 C822,281.015333 821.701546,278.033111 821.097298,275.141333 L821.097298,275.141333 Z" id="Dribbble-2" sketch:type="MSShapeGroup"></path>
        </g>
    </g>
</svg>