<?xml version="1.0" encoding="UTF-8" standalone="no"?>
<svg width="88px" height="88px" viewBox="0 0 88 88" version="1.1" xmlns="http://www.w3.org/2000/svg" xmlns:xlink="http://www.w3.org/1999/xlink" xmlns:sketch="http://www.bohemiancoding.com/sketch/ns">
    <!-- Generator: Sketch 3.0.2 (7799) - http://www.bohemiancoding.com/sketch -->
    <title>Instagram 2</title>
    <description>Created with Sketch.</description>
    <defs></defs>
    <g id="Page-1" stroke="none" stroke-width="1" fill="none" fill-rule="evenodd" sketch:type="MSPage">
        <g id="Social-logos" sketch:type="MSArtboardGroup" transform="translate(-808.000000, -218.000000)" fill="#FFFFFF">
            <path d="M885.268224,306 L818.731776,306 C812.8048,306 808,301.1952 808,295.268224 L808,228.731776 C808,222.8048 812.8048,218 818.731776,218 L885.268224,218 C891.1952,218 896,222.8048 896,228.731776 L896,295.268224 C896,301.1952 891.1952,306 885.268224,306 L885.268224,306 Z M826.635505,255 L818,255 L818,286.052532 C818,291.866056 820.134094,295 826.095255,295 L877.904745,295 C883.865906,295 886,292.39258 886,286.579056 L886,255.000345 L878.443933,255.000345 C879.142435,257.339151 879.524079,259.809847 879.524079,262.368585 C879.524079,276.902394 867.442798,288.684465 852.539896,288.684465 C837.636994,288.684465 825.555713,276.902394 825.555713,262.368585 C825.555359,259.809502 825.937003,257.339151 826.635505,255 L826.635505,255 Z M851.5,245 C842.387221,245 835,252.387221 835,261.5 C835,270.612779 842.387221,278 851.5,278 C860.612779,278 868,270.612779 868,261.5 C868,252.387221 860.612779,245 851.5,245 L851.5,245 Z M886,231.718881 C886,229.664801 884.335233,228 882.281196,228 L872.718804,228 C870.665116,228 869,229.664801 869,231.718881 L869,241.281468 C869,241.479069 869.024395,241.670049 869.058199,241.857544 C869.306328,243.441841 870.545233,244.685998 872.127406,244.940406 C872.320473,244.974559 872.51598,245 872.718804,245 L882.281196,245 C884.335233,245 886,243.33485 886,241.281119 L886,231.718881 L886,231.718881 Z" id="Instagram-2" sketch:type="MSShapeGroup"></path>
        </g>
    </g>
</svg>