<?xml version="1.0" encoding="UTF-8" standalone="no"?>
<svg width="105px" height="88px" viewBox="0 0 105 88" version="1.1" xmlns="http://www.w3.org/2000/svg" xmlns:xlink="http://www.w3.org/1999/xlink" xmlns:sketch="http://www.bohemiancoding.com/sketch/ns">
    <!-- Generator: Sketch 3.0.2 (7799) - http://www.bohemiancoding.com/sketch -->
    <title>Twitter 2</title>
    <description>Created with Sketch.</description>
    <defs></defs>
    <g id="Page-1" stroke="none" stroke-width="1" fill="none" fill-rule="evenodd" sketch:type="MSPage">
        <g id="Social-logos" sketch:type="MSArtboardGroup" transform="translate(-748.000000, -218.000000)" fill="#FFFFFF">
            <path d="M754.448857,222.036758 C754.448857,222.036758 770.022208,244.149097 798.719847,244.601351 C798.719847,244.601351 796.2742,225.422363 812.736774,219.555661 C812.736774,219.555661 826.751423,213.687813 836.093384,224.744555 C836.093384,224.744555 846.994047,222.940121 849.441971,219.555661 C849.441971,219.555661 848.771354,226.347479 841.211253,231.300515 C841.211253,231.300515 848.109845,231.289066 853,228.580124 C853,228.580124 846.119626,237.312626 843.138851,238.673966 C843.087616,238.696865 843.039796,238.716329 842.991976,238.735793 C840.096594,239.863565 846.104824,259.497096 828.084688,282.740641 C828.084688,282.740641 814.433242,301.465085 788.931567,305.077389 C778.560339,306.5475 763.350191,307.785186 748,296.054071 C748,296.054071 763.569935,298.08177 779.143286,286.34951 C779.143286,286.34951 763.127032,284.995039 759.344705,271.456055 C759.344705,271.456055 766.685061,271.456055 768.241485,271.232791 C768.241485,271.232791 751.112848,265.361508 751.334869,248.776968 C751.334869,248.776968 757.118802,251.37256 760.345507,251.033656 C760.344368,251.032511 745.884538,240.086829 754.448857,222.036758 L754.448857,222.036758 Z" id="Twitter-2" sketch:type="MSShapeGroup"></path>
        </g>
    </g>
</svg>